<svg xmlns="http://www.w3.org/2000/svg" width="91.097" height="82.845" viewBox="0 0 91.097 82.845"><defs><style>.a{fill:#009cde;}</style></defs><path class="a" d="M371.094,192.4a.59.59,0,0,1-.944-.118,18.616,18.616,0,0,1-2.769-7.913c-.14-1.233-.823-5.048-7.907-5.048-6.156,0-6.694,5.132-6.772,6.09-.437,5.369,2.3,10.509,5.927,14.407.37.39.117.595-.047.657-14.257,4.324-17.053-3.524-17.485-4.884a37.969,37.969,0,0,1-1.4-10.888c0-13.982,1.334-30.9,25.09-30.9,3.45,0,13.211-.324,17.346,6.608,5.23,8.769-.964,22.519-11.04,31.994m30.3,6.927a39.461,39.461,0,0,1-20.141.293c-.4-.105-.186-.345-.062-.457,9.054-8.369,14.117-18.556,14.117-28.9a24.886,24.886,0,0,0-2.237-10.847l.031.033c-1.626-3.38-7.148-12.751-28.447-12.751l-.117,0,0,0c-4.711.033-9.639.3-14.732.788-.445.03-.666-.127-.394-.685a63.246,63.246,0,0,1,12.6-16.751c.306-.306.036-.634-.158-.766-2.434-1.65-7.527-1.431-12.733.785a20.543,20.543,0,0,0-7.908,5.6,82.2,82.2,0,0,0-8.146,13.736,1.021,1.021,0,0,1-.689.6c-5.366,1.031-10.55,2.257-15.5,3.648a3.532,3.532,0,0,0-2.22,1.585,26.039,26.039,0,0,0-1.113,2.416c-2.467,6.118-2.291,12.06.282,13.832a2.1,2.1,0,0,0,2.013-.3q5.328-2.707,11.133-5.187c.113-.047.279-.1.257.187a64.793,64.793,0,0,0-1.715,14.4c0,23.588,13.649,30.464,27.7,30.464a32.741,32.741,0,0,0,3.583-.2c-.033,0-.134-.02-.293-.048l.293.048a39.521,39.521,0,0,0,13.083-3.892.935.935,0,0,1,.668-.071c14.731,3.37,24.982-.492,29.837-3.293,3.726-2.149,2.628-4.895,1.007-4.275" transform="translate(-311.802 -128.205)"/></svg>