<svg xmlns="http://www.w3.org/2000/svg" width="32.402" height="25.385" viewBox="0 0 32.402 25.385"><defs><style>.a{fill:#009cde;}</style></defs><g transform="translate(-472.509 -715.925)"><path class="a" d="M267.024,56.418a10.6,10.6,0,0,1,5.367,2.134.475.475,0,1,0,.577-.754,11.543,11.543,0,0,0-5.848-2.324.475.475,0,0,0-.1.944Z" transform="translate(222.783 660.456)"/><g transform="translate(472.509 715.925)"><path class="a" d="M31.92,71.951h-2.08a1.719,1.719,0,0,0-1.223.507l-6.98,6.98a1.473,1.473,0,0,1-1.048.434H17.254a1.229,1.229,0,1,1,0-2.457h3.309a.475.475,0,0,0,.336-.139l1.1-1.1a2.079,2.079,0,0,0,1.347-.607l4.3-4.3a.475.475,0,0,0-.672-.671l-4.3,4.3a1.132,1.132,0,0,1-1.714-.128,1.16,1.16,0,0,1,.135-1.5l6.093-6.093a3.488,3.488,0,0,1,2.483-1.028h2.254a.475.475,0,0,0,0-.949H29.673a4.442,4.442,0,0,0-1.96.452,11.465,11.465,0,0,0-2.745-6.261.475.475,0,0,0-.718.621,10.53,10.53,0,0,1,2.563,6.225c-.1.085-.2.174-.294.268L20.426,72.6a2.124,2.124,0,0,0-.451.667h-1.84a.159.159,0,0,1-.158-.146l-.068-.91a.068.068,0,0,1,.036-.065l4.244-2.174a1.024,1.024,0,0,0,.514-.624l.968-3.373a1.018,1.018,0,0,0-.111-.811l-.578-.943a1.02,1.02,0,0,0-.917-.484l-1.117.055a1.02,1.02,0,0,0-.954.853L19.6,67.071a.067.067,0,0,1-.046.054l-1.862.614a.068.068,0,0,1-.081-.032l-1.177-2.2a.068.068,0,0,1,0-.053l.428-1.333a.068.068,0,0,1,.047-.045l1.77-.485a1.012,1.012,0,0,0,.7-.686l.939-3.1a1.013,1.013,0,0,0-.65-1.258l-1.486-.5a1.015,1.015,0,0,0-.74.037l-1.267.569a.068.068,0,0,1-.045,0l-1.753-.435a.068.068,0,0,1-.047-.042l-.571-1.562a10.392,10.392,0,0,1,1.358-.229.475.475,0,0,0-.1-.944A11.588,11.588,0,0,0,4.689,65.653a4.442,4.442,0,0,0-1.96-.453H.475a.475.475,0,0,0,0,.949H2.729a3.488,3.488,0,0,1,2.483,1.028l1.043,1.043a.475.475,0,0,0,.671-.671L5.883,66.507c-.094-.094-.193-.183-.294-.268a10.488,10.488,0,0,1,1.188-4.18l2.946,1.387a.068.068,0,0,1,.038.051l.126.813a.068.068,0,0,1-.033.069l-1.429.812a1.012,1.012,0,0,0-.513.833L7.854,67.2a1.02,1.02,0,0,0,.7,1.016l1.606.53a1.013,1.013,0,0,0,.42.046l1.311-.131a.067.067,0,0,1,.074.067V70.2a.067.067,0,0,1-.009.033l-.852,1.5L8.534,69.158a.475.475,0,1,0-.671.671L11.3,73.271a1.16,1.16,0,0,1,.135,1.5,1.133,1.133,0,0,1-1.714.128l-4.3-4.3a.475.475,0,1,0-.672.671l4.3,4.3a2.079,2.079,0,0,0,1.347.607l1.1,1.1a.475.475,0,0,0,.336.139h3.309a1.234,1.234,0,0,1,.284.033,2.174,2.174,0,0,0,0,2.39,1.234,1.234,0,0,1-.286.034H11.815a1.473,1.473,0,0,1-1.048-.434l-6.981-6.98a1.719,1.719,0,0,0-1.223-.507H.482a.475.475,0,1,0,0,.949h2.08a.776.776,0,0,1,.552.229l6.98,6.98a2.416,2.416,0,0,0,1.72.712h3.333a2.168,2.168,0,0,0,1.053-.272,2.162,2.162,0,0,0,1.052.272h3.333a2.416,2.416,0,0,0,1.72-.712l6.98-6.98a.776.776,0,0,1,.552-.229h2.08a.475.475,0,1,0,0-.949ZM12.036,76.466l-.532-.532a2.082,2.082,0,0,0,.7-.6,2.115,2.115,0,0,0-.228-2.731L11.8,72.42l.981-1.722a1.017,1.017,0,0,0,.133-.5V68.729a1.017,1.017,0,0,0-1.118-1.012l-1.311.132a.071.071,0,0,1-.028,0l-1.606-.53a.067.067,0,0,1-.046-.067l.059-1.177a.067.067,0,0,1,.034-.055l1.429-.812a1.022,1.022,0,0,0,.5-1.04l-.126-.813a1.015,1.015,0,0,0-.572-.764L7.259,61.236a10.765,10.765,0,0,1,5.588-4.362l.6,1.627a1.017,1.017,0,0,0,.71.637l1.752.435a1.022,1.022,0,0,0,.662-.059l1.267-.569a.067.067,0,0,1,.05,0l1.486.5a.068.068,0,0,1,.043.084l-.939,3.1a.068.068,0,0,1-.047.046l-1.769.485a1.014,1.014,0,0,0-.7.67l-.428,1.333a1.024,1.024,0,0,0,.07.79l1.177,2.206a1.015,1.015,0,0,0,1.215.487l1.862-.614a1.014,1.014,0,0,0,.685-.8l.394-2.429A.066.066,0,0,1,21,64.738l1.118-.055a.068.068,0,0,1,.061.032l.578.943a.067.067,0,0,1,.007.053l-.968,3.371a.07.07,0,0,1-.035.043L17.514,71.3a1.014,1.014,0,0,0-.55.98l.068.91a1.112,1.112,0,0,0,1.1,1.025H19.8a2.043,2.043,0,0,0,.394,1.116,2.082,2.082,0,0,0,.7.6l-.532.532H17.253a2.166,2.166,0,0,0-1.054.271,2.168,2.168,0,0,0-1.051-.271H12.036Z" transform="translate(0 -55.437)"/><path class="a" d="M184.532,131.582a.473.473,0,0,0,.336-.139l.349-.349a.475.475,0,0,0-.671-.671l-.014.014-.014-.014a.475.475,0,1,0-.671.671l.349.349A.473.473,0,0,0,184.532,131.582Z" transform="translate(-172.082 -125.548)"/><path class="a" d="M190.063,166.812l-.014.014-.014-.014a.475.475,0,0,0-.671.671l.349.349a.475.475,0,0,0,.671,0l.349-.349a.475.475,0,0,0-.671-.671Z" transform="translate(-177.25 -159.633)"/><path class="a" d="M345.953,142.832l-.014.014-.014-.014a.475.475,0,1,0-.671.671l.349.349a.475.475,0,0,0,.671,0l.349-.349a.475.475,0,0,0-.671-.671Z" transform="translate(-323.275 -137.171)"/><path class="a" d="M217.485,308.987l-.014.014-.014-.014a.475.475,0,0,0-.671.671l.349.349a.475.475,0,0,0,.671,0l.349-.349a.475.475,0,0,0-.671-.671Z" transform="translate(-202.937 -292.811)"/></g></g></svg>